<svg width="72" height="113" viewBox="0 0 72 113" fill="none" xmlns="http://www.w3.org/2000/svg">
<path d="M24.4134 68.4081C21.9709 69.3503 19.8765 71.0195 18.4132 73.1903C16.9331 75.411 16.2317 78.0602 16.4192 80.7224C16.5217 82.1916 16.8728 83.6326 17.4577 84.9842C18.0119 86.2158 18.7518 87.355 19.6514 88.3623C21.2754 90.2487 23.3166 91.6977 25.1828 93.3239C25.7076 93.7725 26.2213 94.257 26.7081 94.755C26.9324 94.9927 27.1567 95.235 27.381 95.4862C27.4999 95.6208 27.6165 95.7598 27.7309 95.8989L27.843 96.0402C28.0427 96.287 27.6322 95.7554 27.8071 95.9931C28.2182 96.5364 28.5814 97.1143 28.8928 97.7203C28.9646 97.8661 29.0319 98.0141 29.0991 98.1689C29.1911 98.3685 28.9399 97.7674 29.0543 98.0657L29.1485 98.3124C29.2693 98.6476 29.3689 98.9899 29.4468 99.3375C29.5652 99.7522 29.8417 100.104 30.2168 100.316C30.5919 100.529 31.0355 100.586 31.4521 100.475C31.8643 100.352 32.2131 100.075 32.4255 99.7015C32.6379 99.3277 32.6974 98.8862 32.5916 98.4694C31.903 95.4481 29.7631 93.0144 27.4841 91.0293C26.3626 90.0558 25.194 89.1518 24.0814 88.1738C23.5274 87.6871 22.9846 87.1824 22.4754 86.6441C22.2511 86.3996 22.0268 86.1506 21.8025 85.8927C21.7442 85.8209 21.6859 85.7514 21.6298 85.6796C21.5737 85.6078 21.4055 85.3229 21.659 85.7199C21.5603 85.5674 21.4346 85.4261 21.3337 85.2713C21.0881 84.9169 20.8634 84.5484 20.6608 84.1678C20.5733 84.004 20.4903 83.8358 20.4118 83.6676C20.3714 83.5846 20.34 83.4926 20.2974 83.4118C20.5374 83.8605 20.3311 83.4904 20.2862 83.3715C19.9899 82.5855 19.7844 81.7682 19.6738 80.9355L19.7322 81.3684C19.6088 80.4124 19.6088 79.4444 19.7322 78.4884L19.6738 78.9213C19.7766 78.1557 19.9624 77.4036 20.2279 76.6782C20.257 76.5997 20.2884 76.5212 20.3198 76.4427C20.4208 76.1803 20.1696 76.7791 20.284 76.5234C20.358 76.3575 20.4342 76.1915 20.5083 76.03C20.6653 75.7159 20.838 75.4131 21.0242 75.117C21.1139 74.9757 21.2081 74.8344 21.3023 74.6976L21.4503 74.4935L21.5244 74.3925C21.641 74.231 21.3001 74.6774 21.4234 74.5226C21.6477 74.24 21.8877 73.9641 22.139 73.7017C22.3902 73.4392 22.6369 73.2082 22.9016 72.9817C22.9509 72.939 23.2381 72.6474 23.2919 72.6632C23.2398 72.7081 23.1851 72.7501 23.1281 72.7888L23.2291 72.7147C23.3076 72.6564 23.3883 72.6003 23.4691 72.5443C23.7909 72.3217 24.1249 72.1173 24.4695 71.9319C24.6422 71.8377 24.8172 71.7502 24.9944 71.6672C25.0866 71.6344 25.1758 71.5939 25.2613 71.5461C25.2613 71.5461 24.9203 71.6852 25.0639 71.6291L25.259 71.5528C25.6627 71.4253 26.0083 71.1591 26.2348 70.8014C26.4523 70.4205 26.5111 69.9693 26.3985 69.5453C26.1495 68.7782 25.2433 68.0761 24.3932 68.4081H24.4134Z" fill="#3C2415"/>
<path d="M7.09057 35.8391C5.57651 36.3236 4.32264 37.4833 3.3043 38.6676C2.23212 39.917 1.25416 41.3077 0.702366 42.8733C0.481732 43.5356 0.321815 44.2165 0.224596 44.9078C0.0882671 45.7053 0.013279 46.5122 0.000290563 47.3213C-0.00864694 48.7102 0.188645 50.0928 0.585723 51.4238C1.32144 53.8912 2.68298 56.1163 4.21722 58.1687C5.04491 59.2723 5.90849 60.3444 6.77206 61.4211C7.16086 61.9041 7.5459 62.3901 7.92722 62.8791C8.12685 63.1348 7.70292 62.5807 7.84423 62.7714C7.89582 62.8387 7.94741 62.9037 7.99676 62.971L8.28163 63.3456C8.4678 63.5946 8.65174 63.8481 8.83342 64.1015C9.55627 65.0967 10.2005 66.1466 10.7602 67.2418C10.8925 67.5042 11.0159 67.7689 11.1348 68.0381C11.2739 68.3588 11.0114 67.7375 11.0877 67.9259L11.1684 68.1233C11.2245 68.2646 11.2783 68.406 11.3299 68.5495C11.5381 69.1233 11.706 69.7109 11.8324 70.3081C11.8952 70.6109 11.9468 70.9182 11.9894 71.2255L11.9311 70.7926V70.8554C11.9473 71.2845 12.1168 71.6935 12.4088 72.0083C12.7152 72.3129 13.1297 72.4839 13.5618 72.4839C13.9938 72.4839 14.4083 72.3129 14.7147 72.0083C14.9839 71.7122 15.2463 71.2703 15.1902 70.8554C15.0823 69.9147 14.8856 68.9864 14.6025 68.083C14.3095 67.2007 13.9496 66.3421 13.5259 65.5147C12.7755 64.0783 11.898 62.712 10.9038 61.4323C9.81363 59.999 8.66071 58.6128 7.55713 57.1952C7.49208 57.1144 7.42928 57.0292 7.36198 56.9485C7.36198 56.935 7.64237 57.3118 7.5033 57.1279C7.46965 57.0875 7.43824 57.0449 7.40683 57.0045C7.27449 56.8296 7.13992 56.6546 7.00982 56.4797C6.7601 56.1447 6.51635 55.8075 6.27859 55.468C5.81427 54.7951 5.38137 54.1222 4.97762 53.4089C4.75331 53.0097 4.5447 52.6037 4.3518 52.1887C4.30694 52.0967 4.26656 52.0048 4.22394 51.9128C4.19927 51.8567 4.17685 51.8006 4.15218 51.7468C4.05124 51.5225 4.32041 52.155 4.22171 51.9106C4.13872 51.7042 4.05573 51.4978 3.9817 51.287C3.66244 50.4162 3.43686 49.5139 3.30879 48.5953L3.36711 49.0282C3.22669 47.9108 3.23195 46.7798 3.3828 45.6637L3.32449 46.0966C3.4204 45.4009 3.56506 44.7128 3.7574 44.0375C3.79329 43.9118 3.83142 43.7885 3.87852 43.6673C3.89871 43.6135 3.9189 43.5597 3.94133 43.5058C4.00638 43.3354 3.76861 43.8961 3.84711 43.7302C3.86506 43.6943 3.88077 43.6561 3.89647 43.618C4.03329 43.3219 4.18806 43.0348 4.34508 42.7544C4.50209 42.474 4.70845 42.1667 4.90584 41.8819C5.00902 41.7361 5.11444 41.588 5.2221 41.4445C5.24678 41.4131 5.27145 41.3839 5.29388 41.3525C5.41052 41.1955 5.06958 41.6486 5.18173 41.4961C5.24005 41.4243 5.29613 41.3525 5.35445 41.283C5.80975 40.7185 6.31172 40.1932 6.85505 39.7129L7.07936 39.5289L7.18926 39.4392C7.33058 39.3181 6.87075 39.6747 7.02104 39.5693C7.17132 39.4639 7.30366 39.3629 7.4517 39.2687C7.59974 39.1745 7.72759 39.1027 7.87115 39.0287C7.94741 38.9906 8.21658 38.8762 7.90704 39.0063C7.5975 39.1364 7.88012 39.0242 7.96087 39.0063C8.77062 38.7483 9.37849 37.8623 9.10035 37.001C8.83567 36.189 7.96312 35.5834 7.0816 35.8615L7.09057 35.8391Z" fill="#3C2415"/>
<path d="M31.9618 33.531C32.2354 33.4861 32.5068 33.4458 32.7805 33.4076L32.3453 33.466C34.9081 33.1288 37.5042 33.1325 40.0659 33.4772L39.6307 33.4189C41.7592 33.7002 43.8479 34.2271 45.8552 34.989C45.9561 35.0271 46.0548 35.072 46.1558 35.1079C45.6399 34.915 46.0234 35.054 46.1401 35.1079C46.3375 35.1976 46.5348 35.294 46.7255 35.3972C46.9162 35.5004 47.0575 35.5834 47.2167 35.6866L47.4837 35.866C47.8268 36.1105 47.2594 35.6731 47.4702 35.8526C47.6271 35.9867 47.7769 36.1289 47.9188 36.2787C47.9884 36.3528 48.0489 36.438 48.1185 36.5031C47.7663 36.1307 48.0041 36.3528 48.087 36.4806C48.1409 36.5659 48.1925 36.6533 48.2373 36.7431C48.428 37.1087 48.1431 36.4425 48.2373 36.7027C48.3083 36.9102 48.3615 37.1233 48.3966 37.3397L48.3383 36.9068C48.3719 37.1847 48.3719 37.4656 48.3383 37.7435L48.3966 37.3105C48.3675 37.5267 48.3225 37.7403 48.262 37.9498C48.2306 38.0552 48.1947 38.1607 48.1566 38.2638C48.1409 38.3087 48.1184 38.3536 48.105 38.3984C48.2261 37.9924 48.188 38.2078 48.1341 38.3177C47.9291 38.7468 47.6922 39.1599 47.4253 39.5536C46.8623 40.3992 46.2478 41.2112 45.6533 42.0367L41.9119 47.2316L39.7653 50.2148C39.6562 50.4029 39.5853 50.6107 39.5569 50.8263C39.5284 51.0419 39.5428 51.261 39.5994 51.4709C39.7164 51.8788 39.9843 52.2268 40.3485 52.4444C41.1919 52.893 42.0465 52.6014 42.5916 51.859L47.4074 45.1724C48.2059 44.0621 49.009 42.9541 49.8052 41.8415C50.5567 40.794 51.3215 39.6119 51.5324 38.3154C51.6854 37.5405 51.6531 36.7405 51.4382 35.9804C51.219 35.3145 50.8716 34.698 50.4153 34.1658C49.729 33.3269 48.7353 32.7078 47.7551 32.2659C45.3124 31.1623 42.6678 30.5522 40.021 30.2001C37.0556 29.8226 34.0508 29.8823 31.1027 30.3773C30.6926 30.4899 30.3431 30.7589 30.1292 31.1265C29.9102 31.5068 29.8505 31.9584 29.9632 32.3826C30.0776 32.7918 30.3461 33.1407 30.7124 33.3561C31.099 33.556 31.5432 33.6147 31.9685 33.522L31.9618 33.531Z" fill="#3C2415"/>
<path d="M46.6149 78.0533L43.9076 94.9457L43.1449 99.6942C43.0457 100.119 43.1047 100.566 43.3109 100.95C43.5271 101.316 43.8757 101.584 44.2844 101.699C45.0672 101.879 46.1461 101.462 46.2897 100.562L48.997 83.6676L49.7597 78.9191C49.8589 78.4941 49.7999 78.0475 49.5937 77.663C49.3761 77.2987 49.0281 77.0309 48.6202 76.9138C47.8374 76.7366 46.7585 77.1538 46.6149 78.0533Z" fill="#3C2415"/>
<path d="M28.041 10.7595C27.404 2.26286 17.2363 1.00002 12.564 10.1988C5.96942 23.1771 3.57608 41.7652 13.921 60.3534C24.192 78.8047 54.3722 83.7977 67.1307 79.3745C71.5024 77.8604 73.1084 73.3496 69.598 69.902C61.2673 61.7329 49.3971 63.0966 36.9841 45.3586C29.3084 34.399 28.8485 21.5307 28.041 10.7595Z" fill="#F6C545"/>
<path d="M14.986 22.5984C15.2576 22.5988 15.5232 22.5187 15.7492 22.3681C15.9753 22.2176 16.1516 22.0033 16.2558 21.7525C16.3601 21.5017 16.3876 21.2257 16.3349 20.9592C16.2821 20.6928 16.1516 20.448 15.9597 20.2558C15.7678 20.0636 15.5232 19.9326 15.2569 19.8794C14.9905 19.8263 14.7144 19.8534 14.4634 19.9572C14.2124 20.061 13.9979 20.237 13.847 20.4628C13.696 20.6886 13.6155 20.9541 13.6155 21.2257C13.6195 21.5881 13.7652 21.9345 14.0213 22.191C14.2773 22.4475 14.6236 22.5937 14.986 22.5984Z" fill="#3C2415"/>
<path d="M24.0231 22.5984C24.2946 22.5984 24.56 22.5179 24.7858 22.3671C25.0115 22.2162 25.1875 22.0018 25.2914 21.751C25.3953 21.5001 25.4225 21.2241 25.3695 20.9578C25.3165 20.6916 25.1858 20.447 24.9938 20.255C24.8018 20.063 24.5572 19.9323 24.2909 19.8793C24.0247 19.8263 23.7486 19.8535 23.4978 19.9574C23.247 20.0613 23.0326 20.2373 22.8817 20.463C22.7309 20.6887 22.6504 20.9542 22.6504 21.2257C22.6545 21.5885 22.8004 21.9353 23.057 22.1918C23.3135 22.4484 23.6603 22.5943 24.0231 22.5984Z" fill="#3C2415"/>
<path d="M14.2256 27.5621C14.986 29.1323 16.5516 30.7024 19.3263 30.7024C22.2422 30.7203 24.0232 29.1323 24.5212 27.5621" stroke="#3C2415" stroke-width="2" stroke-miterlimit="10" stroke-linecap="round"/>
<path d="M25.8064 0.934546L20.0239 0L18.5284 9.25332L24.3109 10.1879L25.8064 0.934546Z" fill="#F6C545"/>
<path d="M34.8147 97.0542H26.6949V103.774L18.021 109.234H34.8147V97.0542Z" fill="#F03636"/>
<path d="M40.5364 100.818H48.6562V107.538L57.3301 113H40.5364V100.818Z" fill="#F03636"/>
<path d="M40.4156 49.3199C39.5184 50.6208 39.3996 52.3771 40.3484 53.6916C41.2456 54.9365 42.5488 55.7619 43.8969 56.4528C44.655 56.843 45.6913 56.6771 46.1265 55.8673C46.5212 55.1226 46.3508 54.0527 45.541 53.6377C44.8438 53.2941 44.1787 52.8887 43.5537 52.4265L43.8767 52.6844C43.5441 52.4318 43.2429 52.1404 42.9795 51.8164L43.2352 52.1461C43.0915 51.9623 42.9703 51.762 42.874 51.5495L43.0378 51.9397C42.9667 51.7707 42.9162 51.5937 42.8875 51.4126L42.9458 51.8455C42.9267 51.6793 42.9267 51.5115 42.9458 51.3453L42.8875 51.7805C42.9167 51.5796 42.9702 51.383 43.0468 51.195L42.883 51.5853C42.9785 51.3682 43.0949 51.1608 43.2307 50.9663C43.3399 50.7782 43.4106 50.5703 43.4387 50.3547C43.4669 50.139 43.4518 49.9199 43.3944 49.7101C43.3088 49.4013 43.134 49.1245 42.892 48.9144C42.65 48.7043 42.3515 48.5702 42.0337 48.5288C41.7159 48.4874 41.3929 48.5406 41.1051 48.6817C40.8174 48.8227 40.5775 49.0455 40.4156 49.3221V49.3199Z" fill="#3C2415"/>
</svg>
